<svg width="297" height="55" viewBox="0 0 297 55" fill="none" xmlns="http://www.w3.org/2000/svg">
<path d="M11.88 36.76H8.46C10.22 39.2 11.1 41.28 11.1 43H4.44V0.999997H11.76V7.3C11.76 10.3 11.48 12.66 10.92 14.38C10.4 16.06 9.58 17.72 8.46 19.36H11.94C13.82 14.6 17.12 12.22 21.84 12.22C25.44 12.22 28.38 13.68 30.66 16.6C32.94 19.52 34.08 23.32 34.08 28C34.08 32.72 32.94 36.56 30.66 39.52C28.38 42.44 25.44 43.9 21.84 43.9C19.12 43.9 17.04 43.28 15.6 42.04C14.16 40.76 12.92 39 11.88 36.76ZM26.4 28C26.4 21.32 23.94 17.98 19.02 17.98C16.66 17.98 14.8 18.86 13.44 20.62C12.08 22.34 11.4 24.8 11.4 28C11.4 31.28 12.08 33.8 13.44 35.56C14.8 37.28 16.66 38.14 19.02 38.14C23.94 38.14 26.4 34.76 26.4 28ZM36.9839 33.04V13.12H44.3039V31.3C44.3039 35.62 46.0239 37.78 49.4639 37.78C52.0239 37.78 53.7839 36.76 54.7439 34.72C55.7439 32.72 56.2439 30.2 56.2439 27.16V13.12H63.5639V43H56.7239C56.7239 41.08 57.6639 38.78 59.5439 36.1H56.1239C54.2839 41.3 51.1239 43.9 46.6439 43.9C43.6039 43.9 41.2239 42.94 39.5039 41.02C37.8239 39.06 36.9839 36.4 36.9839 33.04ZM88.0416 13.12H95.6616L83.4816 47.56C82.6016 50.12 81.4616 51.94 80.0616 53.02C78.7016 54.14 76.7216 54.7 74.1216 54.7H66.3216V48.64H73.3416C74.4216 48.64 75.2416 48.42 75.8016 47.98C76.4016 47.54 76.9216 46.72 77.3616 45.52L78.2616 42.82L64.3416 13.12H72.3816L77.8416 26.02C78.9616 28.54 79.5616 31.94 79.6416 36.22H82.5216C82.6016 33.46 82.7016 31.58 82.8216 30.58C83.0216 28.9 83.3616 27.36 83.8416 25.96L88.0416 13.12ZM108.704 35.38V18.82H102.224V13.12H108.704V3.76H116.024V13.12H123.944V18.82H116.024V34.24C116.024 36.08 116.944 37 118.784 37H125.144V43H116.264C113.864 43 112.004 42.34 110.684 41.02C109.364 39.66 108.704 37.78 108.704 35.38ZM127.058 8.38V0.939998H134.858V8.38H127.058ZM127.358 43V13.12H134.618V43H127.358ZM137.771 28C137.771 23.36 139.231 19.58 142.151 16.66C145.071 13.7 148.731 12.22 153.131 12.22C156.491 12.22 159.351 13.04 161.711 14.68C164.111 16.32 165.771 18.46 166.691 21.1L159.971 23.5C158.691 19.94 156.351 18.16 152.951 18.16C150.671 18.16 148.811 19.02 147.371 20.74C145.931 22.46 145.211 24.88 145.211 28C145.211 31.16 145.931 33.62 147.371 35.38C148.851 37.1 150.731 37.96 153.011 37.96C156.611 37.96 159.071 35.94 160.391 31.9L167.291 34.36C166.171 37.28 164.371 39.6 161.891 41.32C159.451 43.04 156.531 43.9 153.131 43.9C148.611 43.9 144.911 42.44 142.031 39.52C139.191 36.6 137.771 32.76 137.771 28ZM191.694 43L181.614 30.04L176.814 34.6V43H169.494V0.999997H176.814V15.88C176.814 18.56 176.534 20.58 175.974 21.94C175.454 23.26 174.454 24.56 172.974 25.84L175.074 28L190.194 13.12H199.314L186.714 25.18L200.934 43H191.694ZM196.725 28.06C196.725 23.38 198.085 19.58 200.805 16.66C203.565 13.7 207.025 12.22 211.185 12.22C215.425 12.22 218.825 13.66 221.385 16.54C223.945 19.38 225.225 23.06 225.225 27.58C225.225 28.22 225.185 28.98 225.105 29.86H203.985C204.105 32.62 204.825 34.7 206.145 36.1C207.465 37.46 209.205 38.14 211.365 38.14C214.645 38.14 217.085 36.34 218.685 32.74L225.285 35.2C222.965 41 218.305 43.9 211.305 43.9C206.865 43.9 203.325 42.5 200.685 39.7C198.045 36.86 196.725 32.98 196.725 28.06ZM204.225 24.46H217.845C217.725 22.34 217.065 20.68 215.865 19.48C214.705 18.28 213.145 17.68 211.185 17.68C209.345 17.68 207.785 18.28 206.505 19.48C205.265 20.68 204.505 22.34 204.225 24.46ZM230.86 35.38V18.82H224.38V13.12H230.86V3.76H238.18V13.12H246.1V18.82H238.18V34.24C238.18 36.08 239.1 37 240.94 37H247.3V43H238.42C236.02 43 234.16 42.34 232.84 41.02C231.52 39.66 230.86 37.78 230.86 35.38Z" fill="url(#paint0_linear_502_30)"/>
<g clip-path="url(#clip0_502_30)">
<path d="M283.5 34.6445V44.8848L296.037 27.1797L283.5 34.6445Z" fill="#E2E2E2"/>
<path d="M283.5 3.92383L296.037 24.7871L283.5 32.252L270.867 24.7871" fill="#C7C7C7"/>
<path d="M283.5 3.92383V19.0449L270.867 24.7871M270.867 27.1797L283.5 34.6445V44.8848" fill="#AEAEAE"/>
<path d="M283.5 19.0449V32.252L296.037 24.7871" fill="#FFDEDE"/>
<path d="M270.867 24.7871L283.5 19.0449V32.252" fill="#D2CCCC"/>
</g>
<defs>
<linearGradient id="paint0_linear_502_30" x1="245.961" y1="19.9907" x2="239.161" y2="77.3465" gradientUnits="userSpaceOnUse">
<stop stop-color="#FFDEDE"/>
<stop offset="0.807292" stop-color="#F0827D"/>
</linearGradient>
<clipPath id="clip0_502_30">
<rect width="27" height="42" fill="white" transform="translate(270 3)"/>
</clipPath>
</defs>
</svg>
