<svg width="511" height="200" viewBox="0 0 511 200" fill="none" xmlns="http://www.w3.org/2000/svg">
<path d="M0 100.335C0 89.8771 2.48272 81.3855 7.44817 74.8603C12.4136 68.3352 18.8164 65.0726 26.6566 65.0726C36.7617 65.0726 43.8614 70.3911 47.9557 81.0279H55.5346C53.1825 77.4525 51.3967 73.743 50.1771 69.8994C49.0446 66.0559 48.4784 60.7821 48.4784 54.0782V40H64.4201V133.855H49.9158C49.9158 130.279 51.8323 125.631 55.6652 119.911H48.2171C45.9521 124.916 43.2516 128.849 40.1156 131.709C37.0666 134.48 32.5803 135.866 26.6566 135.866C18.8164 135.866 12.4136 132.603 7.44817 126.078C2.48272 119.464 0 110.883 0 100.335ZM49.2624 100.335C49.2624 93.095 47.738 87.5531 44.689 83.7095C41.7272 79.8659 37.7635 77.9441 32.7981 77.9441C21.9089 77.9441 16.4644 85.4078 16.4644 100.335C16.4644 115.441 21.9089 122.994 32.7981 122.994C37.7635 122.994 41.7272 121.073 44.689 117.229C47.738 113.296 49.2624 107.665 49.2624 100.335Z" fill="url(#paint0_linear_510_32)"/>
<path d="M91.6514 133.855V67.0838H106.417C106.417 73.3408 104.37 79.9106 100.276 86.7933H107.724C109.205 79.8212 111.6 74.5922 114.911 71.1061C118.308 67.6201 123.186 65.8771 129.546 65.8771C131.201 65.8771 132.812 66.0112 134.38 66.2793V83.0391C132.377 82.6816 130.025 82.5028 127.324 82.5028C120.355 82.5028 115.303 84.3799 112.167 88.1341C109.118 91.7989 107.593 97.8771 107.593 106.369V133.855H91.6514Z" fill="url(#paint1_linear_510_32)"/>
<path d="M147.237 100.469C147.237 90.1006 150.286 81.6089 156.384 74.9944C162.569 68.3799 170.453 65.0726 180.035 65.0726C189.618 65.0726 197.458 68.3799 203.556 74.9944C209.741 81.6089 212.833 90.1006 212.833 100.469C212.833 110.927 209.741 119.464 203.556 126.078C197.371 132.603 189.53 135.866 180.035 135.866C170.627 135.866 162.787 132.514 156.515 125.81C150.33 119.106 147.237 110.659 147.237 100.469ZM196.369 100.737C196.369 93.5866 194.844 88.0894 191.795 84.2458C188.834 80.3128 184.913 78.3464 180.035 78.3464C174.983 78.3464 170.975 80.3128 168.014 84.2458C165.139 88.0894 163.701 93.5866 163.701 100.737C163.701 107.799 165.139 113.207 168.014 116.961C170.975 120.715 174.983 122.592 180.035 122.592C185.088 122.592 189.051 120.715 191.926 116.961C194.888 113.207 196.369 107.799 196.369 100.737Z" fill="url(#paint2_linear_510_32)"/>
<path d="M235.449 160V67.0838H249.954C249.954 70.838 248.081 75.486 244.335 81.0279H251.783C254.135 75.933 256.792 72.0447 259.754 69.3631C262.803 66.5922 267.333 65.1173 273.343 64.9386C281.184 64.9386 287.586 68.2458 292.552 74.8603C297.517 81.3855 300 89.9218 300 100.469C300 111.017 297.517 119.553 292.552 126.078C287.586 132.603 281.184 135.866 273.343 135.866C263.151 135.866 256.008 130.503 251.914 119.777H244.335C246.774 123.62 248.56 127.419 249.692 131.173C250.825 134.838 251.391 140.067 251.391 146.86V160H235.449ZM267.202 122.994C277.917 122.994 283.274 115.486 283.274 100.469C283.274 85.4525 277.917 77.9441 267.202 77.9441C262.149 77.9441 258.099 79.9106 255.05 83.8436C252.088 87.6871 250.607 93.229 250.607 100.469C250.607 107.62 252.088 113.162 255.05 117.095C258.011 121.028 262.062 122.994 267.202 122.994Z" fill="url(#paint3_linear_510_32)"/>
<g clip-path="url(#clip0_510_32)">
<path d="M347.458 143.143C338.817 127.167 334.496 119.179 333.315 110.634C332.718 106.31 332.718 101.924 333.315 97.5997C334.496 89.0547 338.817 81.067 347.458 65.0915L349.603 61.1267C356.984 47.4796 360.675 40.656 365.886 35.5852C371.238 30.3773 377.739 26.5018 384.865 24.2722C391.804 22.1012 399.561 22.1012 415.074 22.1012C430.588 22.1012 438.344 22.1012 445.283 24.2722C452.409 26.5018 458.911 30.3773 464.262 35.5852C469.473 40.656 473.164 47.4796 480.546 61.1267L482.69 65.0915C491.332 81.067 495.652 89.0547 496.833 97.5997C497.431 101.924 497.431 106.31 496.833 110.634C495.652 119.179 491.332 127.167 482.69 143.143L480.546 147.107C473.164 160.754 469.473 167.578 464.262 172.649C458.911 177.857 452.409 181.732 445.283 183.962C438.344 186.133 430.588 186.133 415.074 186.133C399.561 186.133 391.804 186.133 384.865 183.962C377.739 181.732 371.238 177.857 365.886 172.649C360.675 167.578 356.984 160.754 349.603 147.107L347.458 143.143Z" fill="url(#paint4_linear_510_32)"/>
<g filter="url(#filter0_d_510_32)">
<path d="M341.429 146.564C331.507 128.234 327.013 119.822 325.78 110.908C325.146 106.323 325.146 101.673 325.78 97.0877C327.013 88.174 331.507 79.7621 341.429 61.4315L343.86 56.94C352.335 41.2817 356.251 34.1264 361.69 28.8371C367.368 23.3149 374.267 19.2055 381.828 16.8412C389.071 14.5765 397.232 14.5391 415.043 14.5391C432.855 14.5391 441.015 14.5765 448.258 16.8412C455.82 19.2055 462.718 23.3149 468.397 28.8371C473.836 34.1264 477.751 41.2817 486.227 56.94L488.658 61.4315C498.579 79.7621 503.073 88.174 504.306 97.0877C504.94 101.673 504.94 106.323 504.306 110.908C503.073 119.822 498.579 128.234 488.658 146.564L486.227 151.056C477.751 166.714 473.836 173.87 468.397 179.159C462.718 184.681 455.82 188.79 448.258 191.155C441.015 193.419 432.855 193.457 415.043 193.457C397.232 193.457 389.071 193.419 381.828 191.155C374.267 188.79 367.368 184.681 361.69 179.159C356.251 173.87 352.335 166.714 343.86 151.056L341.429 146.564Z" stroke="url(#paint5_linear_510_32)" stroke-width="6.90296" shape-rendering="crispEdges"/>
</g>
<g clip-path="url(#clip1_510_32)">
<path d="M414.615 128.787V153.42L444.772 110.831L414.615 128.787Z" fill="#E2E2E2"/>
<path d="M414.615 54.8904L444.772 105.076L414.615 123.032L384.227 105.076" fill="#FC8A8A"/>
<path d="M414.615 54.8904V91.2633L384.227 105.076M384.227 110.831L414.615 128.787V153.42" fill="#FFDEDE"/>
<path d="M414.615 91.2633V123.032L444.772 105.076" fill="#FFDEDE"/>
<path d="M384.227 105.076L414.615 91.2633V123.032" fill="#FFDEDE"/>
</g>
</g>
<defs>
<filter id="filter0_d_510_32" x="311.23" y="0.46393" width="207.627" height="207.068" filterUnits="userSpaceOnUse" color-interpolation-filters="sRGB">
<feFlood flood-opacity="0" result="BackgroundImageFix"/>
<feColorMatrix in="SourceAlpha" type="matrix" values="0 0 0 0 0 0 0 0 0 0 0 0 0 0 0 0 0 0 127 0" result="hardAlpha"/>
<feOffset/>
<feGaussianBlur stdDeviation="5.31183"/>
<feComposite in2="hardAlpha" operator="out"/>
<feColorMatrix type="matrix" values="0 0 0 0 1 0 0 0 0 0.870833 0 0 0 0 0.870833 0 0 0 1 0"/>
<feBlend mode="normal" in2="BackgroundImageFix" result="effect1_dropShadow_510_32"/>
<feBlend mode="normal" in="SourceGraphic" in2="effect1_dropShadow_510_32" result="shape"/>
</filter>
<linearGradient id="paint0_linear_510_32" x1="299.952" y1="39.9614" x2="216.628" y2="247.115" gradientUnits="userSpaceOnUse">
<stop stop-color="#FFDEDE"/>
<stop offset="0.807292" stop-color="#F0827D"/>
</linearGradient>
<linearGradient id="paint1_linear_510_32" x1="299.952" y1="39.9614" x2="216.628" y2="247.115" gradientUnits="userSpaceOnUse">
<stop stop-color="#FFDEDE"/>
<stop offset="0.807292" stop-color="#F0827D"/>
</linearGradient>
<linearGradient id="paint2_linear_510_32" x1="299.952" y1="39.9614" x2="216.628" y2="247.115" gradientUnits="userSpaceOnUse">
<stop stop-color="#FFDEDE"/>
<stop offset="0.807292" stop-color="#F0827D"/>
</linearGradient>
<linearGradient id="paint3_linear_510_32" x1="299.952" y1="39.9614" x2="216.628" y2="247.115" gradientUnits="userSpaceOnUse">
<stop stop-color="#FFDEDE"/>
<stop offset="0.807292" stop-color="#F0827D"/>
</linearGradient>
<linearGradient id="paint4_linear_510_32" x1="497.255" y1="22.0484" x2="332.767" y2="186.006" gradientUnits="userSpaceOnUse">
<stop stop-color="#FFDEDE"/>
<stop offset="0.807292" stop-color="#F0827D"/>
</linearGradient>
<linearGradient id="paint5_linear_510_32" x1="508.203" y1="11.0278" x2="321.865" y2="196.89" gradientUnits="userSpaceOnUse">
<stop stop-color="#FFDEDE"/>
<stop offset="0.807292" stop-color="#F0827D"/>
</linearGradient>
<clipPath id="clip0_510_32">
<rect width="200" height="200" fill="white" transform="translate(311)"/>
</clipPath>
<clipPath id="clip1_510_32">
<rect width="61" height="100" fill="white" transform="translate(384 54)"/>
</clipPath>
</defs>
</svg>

