<svg width="200" height="200" viewBox="0 0 200 200" fill="none" xmlns="http://www.w3.org/2000/svg">
<g clip-path="url(#clip0_110_67)">
<path d="M36.458 143.143C27.8169 127.167 23.4963 119.179 22.3154 110.634C21.7178 106.31 21.7178 101.924 22.3154 97.5997C23.4963 89.0547 27.8169 81.067 36.458 65.0915L38.6026 61.1267C45.9844 47.4796 49.6753 40.656 54.886 35.5852C60.2376 30.3773 66.7392 26.5018 73.8654 24.2722C80.804 22.1012 88.5608 22.1012 104.074 22.1012C119.588 22.1012 127.344 22.1012 134.283 24.2722C141.409 26.5018 147.911 30.3773 153.262 35.5852C158.473 40.656 162.164 47.4796 169.546 61.1267L171.69 65.0915C180.332 81.067 184.652 89.0547 185.833 97.5997C186.431 101.924 186.431 106.31 185.833 110.634C184.652 119.179 180.332 127.167 171.69 143.143L169.546 147.107C162.164 160.754 158.473 167.578 153.262 172.649C147.911 177.857 141.409 181.732 134.283 183.962C127.344 186.133 119.588 186.133 104.074 186.133C88.5608 186.133 80.804 186.133 73.8654 183.962C66.7392 181.732 60.2376 177.857 54.886 172.649C49.6753 167.578 45.9844 160.754 38.6026 147.107L36.458 143.143Z" fill="url(#paint0_linear_110_67)"/>
<g filter="url(#filter0_d_110_67)">
<path d="M30.4288 146.564C20.507 128.234 16.013 119.822 14.7803 110.908C14.1462 106.323 14.1462 101.673 14.7803 97.0877C16.013 88.174 20.507 79.7621 30.4288 61.4315L32.86 56.94C41.3353 41.2817 45.2508 34.1264 50.6897 28.8371C56.3681 23.3149 63.2668 19.2055 70.8285 16.8412C78.0714 14.5765 86.2316 14.5391 104.043 14.5391C121.855 14.5391 130.015 14.5765 137.258 16.8412C144.82 19.2055 151.718 23.3149 157.397 28.8371C162.836 34.1264 166.751 41.2817 175.227 56.94L177.658 61.4315C187.579 79.7621 192.073 88.174 193.306 97.0877C193.94 101.673 193.94 106.323 193.306 110.908C192.073 119.822 187.579 128.234 177.658 146.564L175.227 151.056C166.751 166.714 162.836 173.87 157.397 179.159C151.718 184.681 144.82 188.79 137.258 191.155C130.015 193.419 121.855 193.457 104.043 193.457C86.2316 193.457 78.0714 193.419 70.8285 191.155C63.2668 188.79 56.3681 184.681 50.6897 179.159C45.2508 173.87 41.3353 166.714 32.86 151.056L30.4288 146.564Z" stroke="url(#paint1_linear_110_67)" stroke-width="6.90296" shape-rendering="crispEdges"/>
</g>
<g clip-path="url(#clip1_110_67)">
<path d="M103.615 128.787V153.42L133.772 110.831L103.615 128.787Z" fill="#E2E2E2"/>
<path d="M103.615 54.8904L133.772 105.076L103.615 123.032L73.2271 105.076" fill="#FC8A8A"/>
<path d="M103.615 54.8904V91.2633L73.2271 105.076M73.2271 110.831L103.615 128.787V153.42" fill="#FFDEDE"/>
<path d="M103.615 91.2633V123.032L133.772 105.076" fill="#FFDEDE"/>
<path d="M73.2271 105.076L103.615 91.2633V123.032" fill="#FFDEDE"/>
</g>
</g>
<defs>
<filter id="filter0_d_110_67" x="0.229616" y="0.46393" width="207.627" height="207.068" filterUnits="userSpaceOnUse" color-interpolation-filters="sRGB">
<feFlood flood-opacity="0" result="BackgroundImageFix"/>
<feColorMatrix in="SourceAlpha" type="matrix" values="0 0 0 0 0 0 0 0 0 0 0 0 0 0 0 0 0 0 127 0" result="hardAlpha"/>
<feOffset/>
<feGaussianBlur stdDeviation="5.31183"/>
<feComposite in2="hardAlpha" operator="out"/>
<feColorMatrix type="matrix" values="0 0 0 0 1 0 0 0 0 0.870833 0 0 0 0 0.870833 0 0 0 1 0"/>
<feBlend mode="normal" in2="BackgroundImageFix" result="effect1_dropShadow_110_67"/>
<feBlend mode="normal" in="SourceGraphic" in2="effect1_dropShadow_110_67" result="shape"/>
</filter>
<linearGradient id="paint0_linear_110_67" x1="186.255" y1="22.0484" x2="21.7665" y2="186.006" gradientUnits="userSpaceOnUse">
<stop stop-color="#FFDEDE"/>
<stop offset="0.807292" stop-color="#F0827D"/>
</linearGradient>
<linearGradient id="paint1_linear_110_67" x1="197.203" y1="11.0278" x2="10.8649" y2="196.89" gradientUnits="userSpaceOnUse">
<stop stop-color="#FFDEDE"/>
<stop offset="0.807292" stop-color="#F0827D"/>
</linearGradient>
<clipPath id="clip0_110_67">
<rect width="200" height="200" fill="white"/>
</clipPath>
<clipPath id="clip1_110_67">
<rect width="61" height="100" fill="white" transform="translate(72.9998 54)"/>
</clipPath>
</defs>
</svg>
