<svg width="275" height="88" viewBox="0 0 275 88" fill="none" xmlns="http://www.w3.org/2000/svg">
<path d="M6.64 60H3.52732V63.1127H6.64V60ZM6.64 4V0.887314H3.52732V4H6.64ZM20.56 4H23.6727V0.887314H20.56V4ZM20.56 60V63.1127H23.6727V60H20.56ZM9.75268 60V4H3.52732V60H9.75268ZM6.64 7.11268H20.56V0.887314H6.64V7.11268ZM17.4473 4V60H23.6727V4H17.4473ZM20.56 56.8873H6.64V63.1127H20.56V56.8873ZM33.6831 24.48L35.8247 26.7389L35.8323 26.7316L35.84 26.7243L33.6831 24.48ZM65.8431 24.48L63.6863 26.7243L63.7011 26.7386L63.7162 26.7526L65.8431 24.48ZM65.9231 55.52L63.7816 53.2611L65.9231 55.52ZM33.6831 55.36L31.5113 57.5898L31.5185 57.5968L31.5257 57.6037L33.6831 55.36ZM55.3631 31.52L52.7732 33.2466L52.7896 33.2712L52.8065 33.2955L55.3631 31.52ZM30.6358 40C30.6358 34.2695 32.4274 29.9597 35.8247 26.7389L31.5416 22.2211C26.7255 26.787 24.4104 32.8239 24.4104 40H30.6358ZM35.84 26.7243C39.2737 23.4244 43.8147 21.6727 49.7631 21.6727V15.4473C42.4849 15.4473 36.3059 17.6423 31.5263 22.2357L35.84 26.7243ZM49.7631 21.6727C55.7116 21.6727 60.2526 23.4244 63.6863 26.7243L68 22.2357C63.2203 17.6423 57.0414 15.4473 49.7631 15.4473V21.6727ZM63.7162 26.7526C67.161 29.9767 68.9704 34.2822 68.9704 40H75.1958C75.1958 32.8111 72.8452 26.77 67.9701 22.2074L63.7162 26.7526ZM68.9704 40C68.9704 45.7305 67.1789 50.0403 63.7816 53.2611L68.0647 57.7789C72.8807 53.213 75.1958 47.1761 75.1958 40H68.9704ZM63.7816 53.2611C60.3545 56.5102 55.7845 58.2473 49.7631 58.2473V64.4727C57.0751 64.4727 63.2784 62.3165 68.0647 57.7789L63.7816 53.2611ZM49.7631 58.2473C43.8886 58.2473 39.3403 56.4814 35.8406 53.1163L31.5257 57.6037C36.346 62.2386 42.5177 64.4727 49.7631 64.4727V58.2473ZM35.855 53.1302C32.4063 49.7711 30.6358 45.4825 30.6358 40H24.4104C24.4104 46.9975 26.7466 52.9489 31.5113 57.5898L35.855 53.1302ZM60.4758 40C60.4758 35.9802 59.7728 32.4129 57.9198 29.7445L52.8065 33.2955C53.6201 34.4671 54.2504 36.5531 54.2504 40H60.4758ZM57.953 29.7934C56.0686 26.9667 53.2339 25.5273 49.8431 25.5273V31.7527C51.2523 31.7527 52.0977 32.2333 52.7732 33.2466L57.953 29.7934ZM49.8431 25.5273C46.4077 25.5273 43.4726 26.8845 41.556 29.7492C39.7876 32.3925 39.1304 35.9644 39.1304 40H45.3558C45.3558 36.4623 45.9653 34.3541 46.7302 33.2108C47.347 32.2889 48.2119 31.7527 49.8431 31.7527V25.5273ZM39.1304 40C39.1304 44.0118 39.7884 47.5673 41.5617 50.1993C43.4823 53.0498 46.4171 54.3927 49.8431 54.3927V48.1673C48.2025 48.1673 47.3373 47.6302 46.7246 46.7207C45.9645 45.5927 45.3558 43.5082 45.3558 40H39.1304ZM49.8431 54.3927C53.2565 54.3927 56.1718 53.0384 58.073 50.1866C59.8257 47.5575 60.4758 44.0075 60.4758 40H54.2504C54.2504 43.5125 53.6472 45.6025 52.8932 46.7334C52.2878 47.6416 51.4431 48.1673 49.8431 48.1673V54.3927ZM82.29 29.68H85.4027V26.5673H82.29V29.68ZM74.21 29.68H71.0973V32.7927H74.21V29.68ZM74.21 19.92V16.8073H71.0973V19.92H74.21ZM82.29 19.92V23.0327H85.4027V19.92H82.29ZM82.29 7.52V4.40732H79.1773V7.52H82.29ZM96.13 7.52H99.2427V4.40732H96.13V7.52ZM96.13 19.92H93.0173V23.0327H96.13V19.92ZM105.73 19.92H108.843V16.8073H105.73V19.92ZM105.73 29.68V32.7927H108.843V29.68H105.73ZM96.13 29.68V26.5673H93.0173V29.68H96.13ZM107.65 49.44H110.763V46.3273H107.65V49.44ZM107.65 60V63.1127H110.763V60H107.65ZM85.17 57.04L82.9103 59.1807L82.9393 59.2113L82.969 59.241L85.17 57.04ZM85.4027 48.48V29.68H79.1773V48.48H85.4027ZM82.29 26.5673H74.21V32.7927H82.29V26.5673ZM77.3227 29.68V19.92H71.0973V29.68H77.3227ZM74.21 23.0327H82.29V16.8073H74.21V23.0327ZM85.4027 19.92V7.52H79.1773V19.92H85.4027ZM82.29 10.6327H96.13V4.40732H82.29V10.6327ZM93.0173 7.52V19.92H99.2427V7.52H93.0173ZM96.13 23.0327H105.73V16.8073H96.13V23.0327ZM102.617 19.92V29.68H108.843V19.92H102.617ZM105.73 26.5673H96.13V32.7927H105.73V26.5673ZM93.0173 29.68V46.32H99.2427V29.68H93.0173ZM93.0173 46.32C93.0173 47.8398 93.3994 49.5514 94.709 50.861C96.0186 52.1706 97.7302 52.5527 99.25 52.5527V46.3273C99.1847 46.3273 99.128 46.3253 99.0792 46.322C99.0305 46.3188 98.9907 46.3144 98.959 46.3099C98.895 46.3007 98.8679 46.2916 98.8693 46.292C98.8703 46.2924 98.8785 46.2952 98.8927 46.3016C98.907 46.3081 98.9266 46.318 98.9502 46.3321C98.9739 46.3463 99.0003 46.3641 99.0282 46.3858C99.0562 46.4076 99.084 46.432 99.111 46.459C99.138 46.486 99.1624 46.5139 99.1842 46.5418C99.2059 46.5697 99.2237 46.5961 99.2379 46.6198C99.252 46.6434 99.2619 46.663 99.2684 46.6773C99.2748 46.6915 99.2776 46.6997 99.278 46.7007C99.2784 46.7021 99.2693 46.675 99.2601 46.611C99.2556 46.5793 99.2512 46.5395 99.248 46.4908C99.2447 46.442 99.2427 46.3853 99.2427 46.32H93.0173ZM99.25 52.5527H107.65V46.3273H99.25V52.5527ZM104.537 49.44V60H110.763V49.44H104.537ZM107.65 56.8873H93.57V63.1127H107.65V56.8873ZM93.57 56.8873C90.5111 56.8873 88.6006 56.0686 87.371 54.839L82.969 59.241C85.6861 61.9581 89.3756 63.1127 93.57 63.1127V56.8873ZM87.4297 54.8993C86.2137 53.6157 85.4027 51.6243 85.4027 48.48H79.1773C79.1773 52.6957 80.2863 56.4109 82.9103 59.1807L87.4297 54.8993ZM117.837 29.68H120.95V26.5673H117.837V29.68ZM109.757 29.68H106.644V32.7927H109.757V29.68ZM109.757 19.92V16.8073H106.644V19.92H109.757ZM117.837 19.92V23.0327H120.95V19.92H117.837ZM117.837 7.52V4.40732H114.724V7.52H117.837ZM131.677 7.52H134.79V4.40732H131.677V7.52ZM131.677 19.92H128.564V23.0327H131.677V19.92ZM141.277 19.92H144.39V16.8073H141.277V19.92ZM141.277 29.68V32.7927H144.39V29.68H141.277ZM131.677 29.68V26.5673H128.564V29.68H131.677ZM143.197 49.44H146.31V46.3273H143.197V49.44ZM143.197 60V63.1127H146.31V60H143.197ZM120.717 57.04L118.457 59.1807L118.486 59.2113L118.516 59.241L120.717 57.04ZM120.95 48.48V29.68H114.724V48.48H120.95ZM117.837 26.5673H109.757V32.7927H117.837V26.5673ZM112.87 29.68V19.92H106.644V29.68H112.87ZM109.757 23.0327H117.837V16.8073H109.757V23.0327ZM120.95 19.92V7.52H114.724V19.92H120.95ZM117.837 10.6327H131.677V4.40732H117.837V10.6327ZM128.564 7.52V19.92H134.79V7.52H128.564ZM131.677 23.0327H141.277V16.8073H131.677V23.0327ZM138.164 19.92V29.68H144.39V19.92H138.164ZM141.277 26.5673H131.677V32.7927H141.277V26.5673ZM128.564 29.68V46.32H134.79V29.68H128.564ZM128.564 46.32C128.564 47.8398 128.946 49.5514 130.256 50.861C131.566 52.1706 133.277 52.5527 134.797 52.5527V46.3273C134.732 46.3273 134.675 46.3253 134.626 46.322C134.577 46.3188 134.538 46.3144 134.506 46.3099C134.442 46.3007 134.415 46.2916 134.416 46.292C134.417 46.2924 134.425 46.2952 134.44 46.3016C134.454 46.3081 134.473 46.318 134.497 46.3321C134.521 46.3463 134.547 46.3641 134.575 46.3858C134.603 46.4076 134.631 46.432 134.658 46.459C134.685 46.486 134.709 46.5139 134.731 46.5418C134.753 46.5697 134.771 46.5961 134.785 46.6198C134.799 46.6434 134.809 46.663 134.815 46.6773C134.822 46.6915 134.825 46.6997 134.825 46.7007C134.825 46.7021 134.816 46.675 134.807 46.611C134.802 46.5793 134.798 46.5395 134.795 46.4908C134.792 46.442 134.79 46.3853 134.79 46.32H128.564ZM134.797 52.5527H143.197V46.3273H134.797V52.5527ZM140.084 49.44V60H146.31V49.44H140.084ZM143.197 56.8873H129.117V63.1127H143.197V56.8873ZM129.117 56.8873C126.058 56.8873 124.147 56.0686 122.918 54.839L118.516 59.241C121.233 61.9581 124.922 63.1127 129.117 63.1127V56.8873ZM122.977 54.8993C121.761 53.6157 120.95 51.6243 120.95 48.48H114.724C114.724 52.6957 115.833 56.4109 118.457 59.1807L122.977 54.8993ZM151.962 24.56L154.149 26.7757L154.156 26.7684L154.163 26.761L151.962 24.56ZM182.363 24.4L180.085 26.5216L180.1 26.5378L180.115 26.5537L182.363 24.4ZM187.723 42.88V45.9927H190.587L190.824 43.1385L187.723 42.88ZM159.803 42.88V39.7673H156.574L156.692 42.9941L159.803 42.88ZM175.322 45.36L176.273 42.3961L173.564 41.5272L172.456 44.1472L175.322 45.36ZM188.043 49.44L190.881 50.7165L192.31 47.5399L188.993 46.4761L188.043 49.44ZM151.643 55.6L153.859 53.4144L151.643 55.6ZM160.122 34.88L157.022 34.6013L156.717 37.9927H160.122V34.88ZM174.122 34.88V37.9927H177.465L177.227 34.6582L174.122 34.88ZM172.042 29.68L169.748 31.7833L169.794 31.8332L169.842 31.881L172.042 29.68ZM149.075 39.84C149.075 34.3318 150.81 30.0702 154.149 26.7757L149.776 22.3443C145.115 26.9432 142.85 32.8682 142.85 39.84H149.075ZM154.163 26.761C157.528 23.3968 161.778 21.6727 167.163 21.6727V15.4473C160.28 15.4473 154.397 17.7232 149.762 22.359L154.163 26.761ZM167.163 21.6727C173.012 21.6727 177.175 23.3975 180.085 26.5216L184.64 22.2784C180.297 17.6158 174.326 15.4473 167.163 15.4473V21.6727ZM180.115 26.5537C183.135 29.705 184.77 33.9707 184.77 39.68H190.995C190.995 32.696 188.95 26.775 184.61 22.2463L180.115 26.5537ZM184.77 39.68C184.77 40.4157 184.723 41.3893 184.621 42.6215L190.824 43.1385C190.935 41.8107 190.995 40.6509 190.995 39.68H184.77ZM187.723 39.7673H159.803V45.9927H187.723V39.7673ZM156.692 42.9941C156.812 46.2534 157.576 49.238 159.455 51.4403C161.426 53.7506 164.198 54.7127 167.242 54.7127V48.4873C165.54 48.4873 164.699 47.9961 164.19 47.3997C163.589 46.6953 163.007 45.3199 162.913 42.7659L156.692 42.9941ZM167.242 54.7127C169.696 54.7127 171.956 53.993 173.885 52.5036C175.772 51.0466 177.167 48.9898 178.189 46.5728L172.456 44.1472C171.718 45.8902 170.887 46.9534 170.08 47.5764C169.315 48.167 168.416 48.4873 167.242 48.4873V54.7127ZM174.372 48.3239L187.092 52.4039L188.993 46.4761L176.273 42.3961L174.372 48.3239ZM185.204 48.1635C183.661 51.5948 181.46 54.049 178.615 55.6794C175.736 57.329 171.999 58.2473 167.242 58.2473V64.4727C172.779 64.4727 177.655 63.4043 181.71 61.0806C185.799 58.7376 188.851 55.2319 190.881 50.7165L185.204 48.1635ZM167.242 58.2473C161.261 58.2473 156.933 56.5321 153.859 53.4144L149.426 57.7856C153.925 62.3479 159.997 64.4727 167.242 64.4727V58.2473ZM153.859 53.4144C150.776 50.2878 149.075 45.893 149.075 39.84H142.85C142.85 47.1203 144.936 53.2322 149.426 57.7856L153.859 53.4144ZM160.122 37.9927H174.122V31.7673H160.122V37.9927ZM177.227 34.6582C177.03 31.8961 176.14 29.3754 174.243 27.479L169.842 31.881C170.398 32.4379 170.895 33.3839 171.018 35.1018L177.227 34.6582ZM174.337 27.5767C172.474 25.5445 169.982 24.6473 167.242 24.6473V30.8727C168.556 30.8727 169.264 31.2555 169.748 31.7833L174.337 27.5767ZM167.242 24.6473C164.505 24.6473 161.947 25.414 160.021 27.339C158.14 29.2204 157.274 31.8017 157.022 34.6013L163.223 35.1587C163.398 33.2116 163.932 32.233 164.423 31.741C164.872 31.2927 165.66 30.8727 167.242 30.8727V24.6473ZM195.077 60H191.965V63.1127H195.077V60ZM195.077 19.92V16.8073H191.965V19.92H195.077ZM207.557 19.92H210.67V16.8073H207.557V19.92ZM204.277 32.48L201.573 30.9397L198.923 35.5927H204.277V32.48ZM209.798 32.48V35.5927H212.454L212.872 32.969L209.798 32.48ZM213.878 22.16L211.595 20.0441L211.581 20.0593L211.567 20.0746L213.878 22.16ZM225.557 19.12H228.67V16.6438L226.257 16.087L225.557 19.12ZM225.557 32.64L225.151 35.7261L228.67 36.1891V32.64H225.557ZM211.798 35.2L214.092 37.3033L214.106 37.2877L214.12 37.2718L211.798 35.2ZM209.158 60V63.1127H212.27V60H209.158ZM198.19 60V19.92H191.965V60H198.19ZM195.077 23.0327H207.557V16.8073H195.077V23.0327ZM204.445 19.92C204.445 23.9278 203.485 27.5816 201.573 30.9397L206.982 34.0203C209.443 29.6984 210.67 24.9788 210.67 19.92H204.445ZM204.277 35.5927H209.798V29.3673H204.277V35.5927ZM212.872 32.969C213.576 28.5389 214.796 25.788 216.188 24.2454L211.567 20.0746C209.012 22.9053 207.512 27.0344 206.723 31.9909L212.872 32.969ZM216.16 24.2759C217.473 22.8594 219.395 21.9927 222.357 21.9927V15.7673C218.067 15.7673 214.335 17.0873 211.595 20.0441L216.16 24.2759ZM222.357 21.9927C223.75 21.9927 224.524 22.076 224.858 22.153L226.257 16.087C225.204 15.844 223.845 15.7673 222.357 15.7673V21.9927ZM222.445 19.12V32.64H228.67V19.12H222.445ZM225.964 29.5539C223.859 29.277 222.007 29.1273 220.438 29.1273V35.3527C221.641 35.3527 223.203 35.4697 225.151 35.7261L225.964 29.5539ZM220.438 29.1273C216.006 29.1273 212.073 30.2151 209.475 33.1282L214.12 37.2718C215.042 36.2383 216.869 35.3527 220.438 35.3527V29.1273ZM209.503 33.0967C206.94 35.8926 206.045 40.1345 206.045 44.96H212.27C212.27 40.6122 213.135 38.3474 214.092 37.3033L209.503 33.0967ZM206.045 44.96V60H212.27V44.96H206.045ZM209.158 56.8873H195.077V63.1127H209.158V56.8873ZM260.492 19.92V16.8073H258.229L257.531 18.9597L260.492 19.92ZM274.252 19.92L277.182 20.9706L278.675 16.8073H274.252V19.92ZM258.332 64.32L261.253 65.3961L261.257 65.3834L261.262 65.3706L258.332 64.32ZM252.812 72.96L250.897 70.5062L250.864 70.5321L250.831 70.559L252.812 72.96ZM231.052 75.6H227.939V78.7127H231.052V75.6ZM231.052 65.04V61.9273H227.939V65.04H231.052ZM244.892 64.16L242.899 61.7688L242.843 61.8158L242.789 61.8655L244.892 64.16ZM246.572 61.04L243.647 59.9763L243.621 60.0463L243.599 60.1174L246.572 61.04ZM247.212 59.28L250.137 60.3437L250.599 59.0742L249.987 57.8699L247.212 59.28ZM227.212 19.92V16.8073H222.139L224.437 21.33L227.212 19.92ZM242.252 19.92L245.115 18.6983L244.308 16.8073H242.252V19.92ZM247.612 32.48L244.749 33.7017L244.755 33.7157L244.761 33.7297L247.612 32.48ZM250.172 49.92H247.059V53.0327H250.172V49.92ZM254.892 49.92V53.0327H258.005V49.92H254.892ZM256.652 31.76L253.691 30.7997L253.683 30.825L253.675 30.8504L256.652 31.76ZM260.492 23.0327H274.252V16.8073H260.492V23.0327ZM271.322 18.8694L255.402 63.2694L261.262 65.3706L277.182 20.9706L271.322 18.8694ZM255.411 63.2439C254.016 67.0316 252.439 69.3028 250.897 70.5062L254.727 75.4138C257.558 73.2039 259.661 69.7151 261.253 65.3961L255.411 63.2439ZM250.831 70.559C249.464 71.6869 247.189 72.4873 243.532 72.4873V78.7127C247.981 78.7127 251.893 77.7531 254.793 75.361L250.831 70.559ZM243.532 72.4873H231.052V78.7127H243.532V72.4873ZM234.165 75.6V65.04H227.939V75.6H234.165ZM231.052 68.1527H242.012V61.9273H231.052V68.1527ZM242.012 68.1527C243.708 68.1527 245.56 67.7698 246.995 66.4545L242.789 61.8655C242.86 61.7998 242.888 61.811 242.782 61.8432C242.665 61.879 242.424 61.9273 242.012 61.9273V68.1527ZM246.885 66.5512C248.25 65.4135 249.027 63.6305 249.545 61.9626L243.599 60.1174C243.398 60.7644 243.209 61.212 243.051 61.5043C242.887 61.8092 242.815 61.8393 242.899 61.7688L246.885 66.5512ZM249.497 62.1037L250.137 60.3437L244.287 58.2163L243.647 59.9763L249.497 62.1037ZM249.987 57.8699L229.987 18.5099L224.437 21.33L244.437 60.6901L249.987 57.8699ZM227.212 23.0327H242.252V16.8073H227.212V23.0327ZM239.389 21.1417L244.749 33.7017L250.475 31.2583L245.115 18.6983L239.389 21.1417ZM244.761 33.7297C246.226 37.0714 247.059 41.8428 247.059 48.24H253.285C253.285 41.4105 252.411 35.6752 250.463 31.2303L244.761 33.7297ZM247.059 48.24V49.92H253.285V48.24H247.059ZM250.172 53.0327H254.892V46.8073H250.172V53.0327ZM258.005 49.92V47.52H251.779V49.92H258.005ZM258.005 47.52C258.005 40.9868 258.585 36.0845 259.629 32.6696L253.675 30.8504C252.372 35.1154 251.779 40.7198 251.779 47.52H258.005ZM259.613 32.7203L263.453 20.8803L257.531 18.9597L253.691 30.7997L259.613 32.7203Z" fill="#F0827D"/>
<path d="M4.64 56V-3.8147e-06H18.56V56H4.64ZM25.5231 36C25.5231 29.5467 27.5765 24.3733 31.6831 20.48C35.7898 16.5333 41.1498 14.56 47.7631 14.56C54.3765 14.56 59.7365 16.5333 63.8431 20.48C68.0031 24.3733 70.0831 29.5467 70.0831 36C70.0831 42.4533 68.0298 47.6267 63.9231 51.52C59.8165 55.4133 54.4298 57.36 47.7631 57.36C41.2031 57.36 35.8431 55.36 31.6831 51.36C27.5765 47.36 25.5231 42.24 25.5231 36ZM55.3631 36C55.3631 32.2667 54.6965 29.44 53.3631 27.52C52.0831 25.6 50.2431 24.64 47.8431 24.64C42.7765 24.64 40.2431 28.4267 40.2431 36C40.2431 43.52 42.7765 47.28 47.8431 47.28C52.8565 47.28 55.3631 43.52 55.3631 36ZM80.29 44.48V25.68H72.21V15.92H80.29V3.52H94.13V15.92H103.73V25.68H94.13V42.32C94.13 44.4 95.17 45.44 97.25 45.44H105.65V56H91.57C87.9433 56 85.1433 55.0133 83.17 53.04C81.25 51.0133 80.29 48.16 80.29 44.48ZM115.837 44.48V25.68H107.757V15.92H115.837V3.52H129.677V15.92H139.277V25.68H129.677V42.32C129.677 44.4 130.717 45.44 132.797 45.44H141.197V56H127.117C123.49 56 120.69 55.0133 118.717 53.04C116.797 51.0133 115.837 48.16 115.837 44.48ZM143.963 35.84C143.963 29.6 145.963 24.5067 149.963 20.56C153.963 16.56 159.029 14.56 165.163 14.56C171.669 14.56 176.736 16.5067 180.363 20.4C184.043 24.24 185.883 29.3333 185.883 35.68C185.883 36.5333 185.829 37.6 185.723 38.88H157.803C158.016 44.6933 160.496 47.6 165.243 47.6C168.869 47.6 171.563 45.52 173.323 41.36L186.043 45.44C182.469 53.3867 175.536 57.36 165.243 57.36C158.629 57.36 153.429 55.44 149.643 51.6C145.856 47.76 143.963 42.5067 143.963 35.84ZM158.123 30.88H172.123C171.963 28.64 171.269 26.9067 170.043 25.68C168.869 24.4 167.269 23.76 165.243 23.76C160.923 23.76 158.549 26.1333 158.123 30.88ZM193.078 56V15.92H205.558C205.558 20.4533 204.464 24.64 202.278 28.48H207.798C208.544 23.7867 209.904 20.3467 211.878 18.16C213.904 15.9733 216.731 14.88 220.358 14.88C221.798 14.88 222.864 14.96 223.558 15.12V28.64C221.531 28.3733 219.824 28.24 218.438 28.24C214.438 28.24 211.558 29.2267 209.798 31.2C208.038 33.12 207.158 36.3733 207.158 40.96V56H193.078ZM258.492 15.92H272.252L256.332 60.32C254.839 64.3733 252.999 67.2533 250.812 68.96C248.679 70.72 245.585 71.6 241.532 71.6H229.052V61.04H240.012C241.292 61.04 242.252 60.7467 242.892 60.16C243.532 59.6267 244.092 58.5867 244.572 57.04L245.212 55.28L225.212 15.92H240.252L245.612 28.48C247.319 32.3733 248.172 37.6267 248.172 44.24V45.92H252.892V43.52C252.892 36.8533 253.479 31.6 254.652 27.76L258.492 15.92Z" fill="url(#paint0_linear_323_131)"/>
<defs>
<linearGradient id="paint0_linear_323_131" x1="272.956" y1="3.97427" x2="229.454" y2="151.602" gradientUnits="userSpaceOnUse">
<stop stop-color="#FFDEDE"/>
<stop offset="0.807292" stop-color="#F0827D"/>
</linearGradient>
</defs>
</svg>
