<svg width="187" height="97" viewBox="0 0 187 97" fill="none" xmlns="http://www.w3.org/2000/svg">
<path d="M2.59078 96.9V83.08H4.29078C4.29078 83.64 3.99744 84.3533 3.41078 85.22H4.45078C4.75744 84.4867 5.14411 83.9 5.61078 83.46C6.09078 83.02 6.77744 82.8 7.67078 82.8C8.84411 82.8 9.80411 83.28 10.5508 84.24C11.3108 85.2 11.6908 86.4667 11.6908 88.04C11.6908 89.6133 11.3108 90.88 10.5508 91.84C9.80411 92.8 8.84411 93.28 7.67078 93.28C6.08411 93.28 5.01078 92.4733 4.45078 90.86H3.35078C3.72411 91.46 3.99744 92.0333 4.17078 92.58C4.35744 93.1267 4.45744 93.86 4.47078 94.78V96.9H2.59078ZM9.75078 88.06C9.75078 85.62 8.86411 84.4 7.09078 84.4C6.26411 84.4 5.59744 84.72 5.09078 85.36C4.59744 86 4.35078 86.9 4.35078 88.06C4.35078 89.2333 4.59744 90.1333 5.09078 90.76C5.59744 91.3733 6.26411 91.68 7.09078 91.68C8.86411 91.68 9.75078 90.4733 9.75078 88.06ZM14.0309 91.78C13.1243 90.78 12.6709 89.5333 12.6709 88.04C12.6709 86.5467 13.1176 85.3 14.0109 84.3C14.9043 83.3 16.0309 82.8 17.3909 82.8C18.7509 82.8 19.8709 83.3 20.7509 84.3C21.6443 85.3 22.0909 86.5467 22.0909 88.04C22.0909 89.5333 21.6443 90.78 20.7509 91.78C19.8576 92.78 18.7376 93.28 17.3909 93.28C16.0576 93.28 14.9376 92.78 14.0309 91.78ZM20.1509 88.08C20.1509 86.8933 19.8976 85.9867 19.3909 85.36C18.8976 84.7333 18.2309 84.42 17.3909 84.42C16.5376 84.42 15.8643 84.7333 15.3709 85.36C14.8776 85.9867 14.6309 86.8933 14.6309 88.08C14.6309 89.24 14.8709 90.1267 15.3509 90.74C15.8443 91.3533 16.5243 91.66 17.3909 91.66C18.2443 91.66 18.9176 91.3533 19.4109 90.74C19.9043 90.1133 20.1509 89.2267 20.1509 88.08ZM25.8633 93L22.6233 83.08H24.5833L25.9833 87.7C26.1966 88.3933 26.3299 88.98 26.3833 89.46C26.4633 90.1267 26.5099 90.7533 26.5233 91.34H27.3433C27.4233 89.9933 27.6233 88.8133 27.9433 87.8L29.3833 83.08H31.5833L33.1433 88.24C33.3966 89.0667 33.5499 90.1 33.6033 91.34H34.4433C34.4566 90.0067 34.6433 88.7733 35.0033 87.64L36.4233 83.08H38.4033L35.0633 93H32.8433L31.4433 88.4C31.0833 87.2 30.8966 85.94 30.8833 84.62H30.0033C29.9899 85.9667 29.8033 87.22 29.4433 88.38L28.0033 93H25.8633ZM38.9039 88.08C38.9039 86.4933 39.3239 85.22 40.1639 84.26C41.0039 83.2867 42.0839 82.8 43.4039 82.8C44.7239 82.8 45.7906 83.26 46.6039 84.18C47.4172 85.1 47.8239 86.2733 47.8239 87.7C47.8239 87.9533 47.8039 88.2267 47.7639 88.52H40.7839C40.8239 89.5867 41.0906 90.3867 41.5839 90.92C42.0906 91.44 42.7372 91.7 43.5239 91.7C44.7106 91.7 45.5772 91.0667 46.1239 89.8L47.8439 90.42C47.4972 91.34 46.9439 92.0467 46.1839 92.54C45.4372 93.0333 44.5372 93.28 43.4839 93.28C42.0839 93.28 40.9706 92.8267 40.1439 91.92C39.3172 91 38.9039 89.72 38.9039 88.08ZM40.8239 87.02H45.8639C45.8506 86.18 45.6106 85.52 45.1439 85.04C44.6772 84.5467 44.0972 84.3 43.4039 84.3C42.7239 84.3 42.1439 84.5467 41.6639 85.04C41.1839 85.5333 40.9039 86.1933 40.8239 87.02ZM49.6056 93V83.08H51.4256C51.4256 83.8667 51.0723 84.8133 50.3656 85.92H51.4456C51.9523 83.9333 53.0456 82.94 54.7256 82.94C55.059 82.94 55.3723 82.9733 55.6656 83.04V84.98C55.239 84.9133 54.8856 84.88 54.6056 84.88C52.5256 84.88 51.4856 86.1133 51.4856 88.58V93H49.6056ZM55.7805 88.08C55.7805 86.4933 56.2005 85.22 57.0405 84.26C57.8805 83.2867 58.9605 82.8 60.2805 82.8C61.6005 82.8 62.6671 83.26 63.4805 84.18C64.2938 85.1 64.7005 86.2733 64.7005 87.7C64.7005 87.9533 64.6805 88.2267 64.6405 88.52H57.6605C57.7005 89.5867 57.9671 90.3867 58.4605 90.92C58.9671 91.44 59.6138 91.7 60.4005 91.7C61.5871 91.7 62.4538 91.0667 63.0005 89.8L64.7205 90.42C64.3738 91.34 63.8205 92.0467 63.0605 92.54C62.3138 93.0333 61.4138 93.28 60.3605 93.28C58.9605 93.28 57.8471 92.8267 57.0205 91.92C56.1938 91 55.7805 89.72 55.7805 88.08ZM57.7005 87.02H62.7405C62.7271 86.18 62.4871 85.52 62.0205 85.04C61.5538 84.5467 60.9738 84.3 60.2805 84.3C59.6005 84.3 59.0205 84.5467 58.5405 85.04C58.0605 85.5333 57.7805 86.1933 57.7005 87.02ZM65.7422 88.02C65.7422 86.46 66.1222 85.2 66.8822 84.24C67.6422 83.28 68.6088 82.8 69.7822 82.8C71.3555 82.8 72.4222 83.6067 72.9822 85.22H74.0822C73.3488 84.1933 72.9822 82.8867 72.9822 81.3V79H74.8622V93H73.1622C73.1622 92.4133 73.4622 91.7 74.0622 90.86H73.0022C72.6955 91.5933 72.3022 92.18 71.8222 92.62C71.3555 93.06 70.6755 93.28 69.7822 93.28C68.6088 93.28 67.6422 92.8 66.8822 91.84C66.1222 90.88 65.7422 89.6067 65.7422 88.02ZM72.3222 90.74C72.8288 90.1 73.0822 89.1933 73.0822 88.02C73.0822 86.8467 72.8355 85.9533 72.3422 85.34C71.8488 84.7133 71.1822 84.4 70.3422 84.4C68.5822 84.4 67.7022 85.6067 67.7022 88.02C67.7022 90.46 68.5822 91.68 70.3422 91.68C71.1688 91.68 71.8288 91.3667 72.3222 90.74ZM83.5 90.86H82.44C83.04 91.7 83.34 92.4133 83.34 93H81.64V79H83.52V81.3C83.52 82.2333 83.4267 82.98 83.24 83.54C83.0667 84.1 82.7867 84.66 82.4 85.22H83.5C84.0733 83.6067 85.1467 82.8 86.72 82.8C87.8933 82.8 88.8533 83.28 89.6 84.24C90.36 85.1867 90.74 86.4467 90.74 88.02C90.74 89.6067 90.36 90.88 89.6 91.84C88.8533 92.8 87.8933 93.28 86.72 93.28C85.8267 93.28 85.14 93.06 84.66 92.62C84.1933 92.18 83.8067 91.5933 83.5 90.86ZM88.8 88.02C88.8 85.6067 87.9133 84.4 86.14 84.4C85.3133 84.4 84.6467 84.7133 84.14 85.34C83.6467 85.9533 83.4 86.8467 83.4 88.02C83.4 89.1933 83.6467 90.1 84.14 90.74C84.6467 91.3667 85.3133 91.68 86.14 91.68C87.9133 91.68 88.8 90.46 88.8 88.02ZM98.5411 83.08H100.521L96.6411 94.4C96.2944 95.36 95.9011 96.0133 95.4611 96.36C95.0344 96.72 94.3811 96.9 93.5011 96.9H91.4411V95.22H93.4411C93.8144 95.22 94.1011 95.1533 94.3011 95.02C94.5144 94.8867 94.6811 94.6467 94.8011 94.3L95.3011 92.9L90.9211 83.08H93.0211L95.0811 88C95.4011 88.7333 95.5744 89.7333 95.6011 91H96.4411C96.4544 89.9733 96.5944 89.0467 96.8611 88.22L98.5411 83.08ZM104.691 88.08C104.691 86.4933 105.111 85.22 105.951 84.26C106.791 83.2867 107.871 82.8 109.191 82.8C110.511 82.8 111.578 83.26 112.391 84.18C113.205 85.1 113.611 86.2733 113.611 87.7C113.611 87.9533 113.591 88.2267 113.551 88.52H106.571C106.611 89.5867 106.878 90.3867 107.371 90.92C107.878 91.44 108.525 91.7 109.311 91.7C110.498 91.7 111.365 91.0667 111.911 89.8L113.631 90.42C113.285 91.34 112.731 92.0467 111.971 92.54C111.225 93.0333 110.325 93.28 109.271 93.28C107.871 93.28 106.758 92.8267 105.931 91.92C105.105 91 104.691 89.72 104.691 88.08ZM106.611 87.02H111.651C111.638 86.18 111.398 85.52 110.931 85.04C110.465 84.5467 109.885 84.3 109.191 84.3C108.511 84.3 107.931 84.5467 107.451 85.04C106.971 85.5333 106.691 86.1933 106.611 87.02ZM116.158 90.56V84.64H113.898V83.08H116.158V79.98H118.038V83.08H120.718V84.64H118.038V90.4C118.038 91.0533 118.364 91.38 119.018 91.38H121.098V93H118.638C116.984 93 116.158 92.1867 116.158 90.56ZM122.425 93V79H124.305V81.72C124.292 82.64 124.205 83.3467 124.045 83.84C123.885 84.3333 123.625 84.8467 123.265 85.38H124.285C124.485 84.7133 124.865 84.12 125.425 83.6C125.985 83.0667 126.665 82.8 127.465 82.8C128.612 82.8 129.472 83.1267 130.045 83.78C130.632 84.42 130.925 85.3333 130.925 86.52V93H129.045V86.94C129.045 85.2733 128.352 84.44 126.965 84.44C126.165 84.44 125.565 84.68 125.165 85.16C124.805 85.5867 124.572 86.0733 124.465 86.62C124.358 87.1667 124.305 87.8667 124.305 88.72V93H122.425ZM132.526 88.08C132.526 86.4933 132.946 85.22 133.786 84.26C134.626 83.2867 135.706 82.8 137.026 82.8C138.346 82.8 139.412 83.26 140.226 84.18C141.039 85.1 141.446 86.2733 141.446 87.7C141.446 87.9533 141.426 88.2267 141.386 88.52H134.406C134.446 89.5867 134.712 90.3867 135.206 90.92C135.712 91.44 136.359 91.7 137.146 91.7C138.332 91.7 139.199 91.0667 139.746 89.8L141.466 90.42C141.119 91.34 140.566 92.0467 139.806 92.54C139.059 93.0333 138.159 93.28 137.106 93.28C135.706 93.28 134.592 92.8267 133.766 91.92C132.939 91 132.526 89.72 132.526 88.08ZM134.446 87.02H139.486C139.472 86.18 139.232 85.52 138.766 85.04C138.299 84.5467 137.719 84.3 137.026 84.3C136.346 84.3 135.766 84.5467 135.286 85.04C134.806 85.5333 134.526 86.1933 134.446 87.02ZM143.227 93V83.08H145.047C145.047 83.8667 144.694 84.8133 143.987 85.92H145.067C145.574 83.9333 146.667 82.94 148.347 82.94C148.681 82.94 148.994 82.9733 149.287 83.04V84.98C148.861 84.9133 148.507 84.88 148.227 84.88C146.147 84.88 145.107 86.1133 145.107 88.58V93H143.227ZM149.402 88.08C149.402 86.4933 149.822 85.22 150.662 84.26C151.502 83.2867 152.582 82.8 153.902 82.8C155.222 82.8 156.289 83.26 157.102 84.18C157.916 85.1 158.322 86.2733 158.322 87.7C158.322 87.9533 158.302 88.2267 158.262 88.52H151.282C151.322 89.5867 151.589 90.3867 152.082 90.92C152.589 91.44 153.236 91.7 154.022 91.7C155.209 91.7 156.076 91.0667 156.622 89.8L158.342 90.42C157.996 91.34 157.442 92.0467 156.682 92.54C155.936 93.0333 155.036 93.28 153.982 93.28C152.582 93.28 151.469 92.8267 150.642 91.92C149.816 91 149.402 89.72 149.402 88.08ZM151.322 87.02H156.362C156.349 86.18 156.109 85.52 155.642 85.04C155.176 84.5467 154.596 84.3 153.902 84.3C153.222 84.3 152.642 84.5467 152.162 85.04C151.682 85.5333 151.402 86.1933 151.322 87.02ZM159.964 89.6V83.08H161.844V89.14C161.844 90.82 162.524 91.66 163.884 91.66C164.644 91.66 165.211 91.4333 165.584 90.98C166.184 90.26 166.484 89.0667 166.484 87.4V83.08H168.364V93H166.584C166.584 92.36 166.891 91.5867 167.504 90.68H166.464C165.851 92.4133 164.797 93.28 163.304 93.28C162.224 93.28 161.397 92.9533 160.824 92.3C160.251 91.6467 159.964 90.7467 159.964 89.6ZM170.847 93V83.08H172.587C172.587 83.68 172.334 84.3533 171.827 85.1H172.827C173.307 83.5667 174.227 82.8 175.587 82.8C176.28 82.8 176.874 83.0067 177.367 83.42C177.874 83.82 178.22 84.38 178.407 85.1H179.207C179.354 84.4867 179.694 83.9533 180.227 83.5C180.76 83.0333 181.387 82.8 182.107 82.8C183.134 82.8 183.954 83.1333 184.567 83.8C185.18 84.4533 185.487 85.3467 185.487 86.48V93H183.607V86.94C183.607 85.2867 182.914 84.46 181.527 84.46C180.807 84.46 180.267 84.6733 179.907 85.1C179.574 85.4733 179.354 85.9133 179.247 86.42C179.14 86.9133 179.087 87.5467 179.087 88.32V93H177.247V86.94C177.247 85.2867 176.547 84.46 175.147 84.46C174.44 84.46 173.907 84.6733 173.547 85.1C173 85.7267 172.727 86.8 172.727 88.32V93H170.847Z" fill="#FFDEDE"/>
<path d="M93.0001 63.9611C110.121 63.9611 124 50.0906 124 32.9805C124 15.8705 110.121 2 93.0001 2C75.8792 2 62 15.8705 62 32.9805C62 50.0906 75.8792 63.9611 93.0001 63.9611Z" fill="url(#paint0_linear_507_30)" stroke="url(#paint1_linear_507_30)" stroke-width="4"/>
<g clip-path="url(#clip0_507_30)">
<path d="M93.5396 41.7467V50.2267L103.922 35.5649L93.5396 41.7467Z" fill="#E2E2E2"/>
<path d="M93.5396 16.3064L103.922 33.5835L93.5396 39.7652L83.0782 33.5835" fill="#FC8A8A"/>
<path d="M93.5396 16.3064V28.8283L83.0782 33.5835M83.0782 35.5648L93.5396 41.7465V50.2266" fill="#FFDEDE"/>
<path d="M93.5396 28.8284V39.7652L103.922 33.5835" fill="#FFDEDE"/>
<path d="M83.0782 33.5835L93.5396 28.8284V39.7652" fill="#FFDEDE"/>
</g>
<defs>
<linearGradient id="paint0_linear_507_30" x1="123.99" y1="1.98008" x2="61.8571" y2="63.8076" gradientUnits="userSpaceOnUse">
<stop stop-color="#FFDEDE"/>
<stop offset="0.807292" stop-color="#F0827D"/>
</linearGradient>
<linearGradient id="paint1_linear_507_30" x1="123.99" y1="1.98008" x2="61.8571" y2="63.8076" gradientUnits="userSpaceOnUse">
<stop stop-color="#FFDEDE"/>
<stop offset="0.807292" stop-color="#F0827D"/>
</linearGradient>
<clipPath id="clip0_507_30">
<rect width="21.0002" height="34.4265" fill="white" transform="translate(83 16)"/>
</clipPath>
</defs>
</svg>

